<svg class="svg-standalone-icon" width="100%" viewBox="226.7830345558383 115 96.4339308883234 151.3364110378992">
    <g data-paper-data="{&quot;isIcon&quot;:&quot;true&quot;,&quot;iconType&quot;:&quot;icon&quot;,&quot;rawIconId&quot;:&quot;040017b4-bc53-416a-b18f-b197273baa6c&quot;,&quot;selectedEffects&quot;:{&quot;container&quot;:&quot;&quot;,&quot;transformation&quot;:&quot;&quot;,&quot;pattern&quot;:&quot;&quot;},&quot;isDetailed&quot;:false,&quot;fillRule&quot;:&quot;nonzero&quot;,&quot;bounds&quot;:{&quot;x&quot;:226.7830345558383,&quot;y&quot;:115,&quot;width&quot;:96.4339308883234,&quot;height&quot;:151.3364110378992},&quot;iconStyle&quot;:&quot;standalone&quot;,&quot;suitableAsStandaloneIcon&quot;:true}" fill-rule="nonzero">
        <path d="M315.69688,264.39297c0.02937,-1.09718 0.05205,-2.20104 0.0654,-3.31023l0.01468,-1.66713c-0.00935,-0.55393 -0.0347,-1.10653 -0.05206,-1.66179l-0.14416,-3.34628c-0.09344,-1.1092 -0.20688,-2.21839 -0.31234,-3.33826c-0.4952,-4.44746 -1.3241,-8.90827 -2.61882,-13.16886c-0.32835,-1.05847 -0.70876,-2.08225 -1.06648,-3.13137c-0.0921,-0.25894 -0.17886,-0.5259 -0.27763,-0.78084l-0.30966,-0.75014l-0.62601,-1.50428c-0.39777,-1.03178 -0.89163,-1.95011 -1.36547,-2.90446c-0.23892,-0.47251 -0.47384,-0.95436 -0.72078,-1.42019l-0.77684,-1.34278l-0.78351,-1.34545c-0.26162,-0.44849 -0.5526,-0.84357 -0.83156,-1.26536c-0.56595,-0.82222 -1.1172,-1.69115 -1.72052,-2.43996l-0.89163,-1.16259c-0.29632,-0.38975 -0.59531,-0.7795 -0.90631,-1.12921c-0.61533,-0.71944 -1.236,-1.44423 -1.86601,-2.1343c-2.52672,-2.74563 -5.18559,-5.06012 -7.85513,-7.18374c-2.67488,-2.11027 -5.37779,-4.01766 -8.06069,-5.79291c-5.37246,-3.57051 -10.67684,-6.79933 -15.79836,-10.30978c-2.55609,-1.7619 -5.08548,-3.55583 -7.53612,-5.50593c-1.24668,-0.929 -2.43329,-1.98614 -3.6546,-2.96987c-0.60332,-0.50721 -1.18928,-1.04913 -1.78592,-1.57236c-0.59264,-0.5299 -1.19729,-1.03578 -1.77125,-1.60306l-1.74722,-1.65645c-0.58463,-0.54726 -1.11987,-1.13856 -1.68449,-1.70584c-1.1399,-1.11587 -2.17701,-2.36255 -3.25817,-3.56518c-2.0769,-2.50403 -4.02834,-5.18159 -5.74486,-8.10607c-3.44772,-5.8196 -5.82228,-12.81515 -6.32548,-20.67828l-0.08409,-1.47759c-0.01468,-0.4952 -0.01335,-0.9904 -0.02135,-1.49094l-0.00801,-0.75148l0.02269,-0.75014c0.02135,-0.50054 0.01602,-1.00909 0.04672,-1.51363c0.09076,-2.02618 0.32702,-4.05371 0.62467,-6.09457c0.31501,-2.03286 0.72078,-4.06838 1.23466,-6.06653c0.50988,-2.00349 1.10119,-3.98429 1.8193,-5.90903c-1.14123,1.41352 -2.13564,3.09133 -3.0673,4.85456c-0.91699,1.78059 -1.74721,3.68931 -2.45598,5.72083c-0.71677,2.02618 -1.31875,4.16983 -1.79393,6.40556c-0.12547,0.5566 -0.21757,1.12655 -0.32168,1.6965l-0.15083,0.85693l-0.11879,0.86894c-0.07608,0.58196 -0.16017,1.16392 -0.22691,1.75255l-0.15617,1.77792c-0.36973,4.7678 -0.03337,9.72514 0.85959,14.42487l0.16151,0.88763l0.20022,0.86226c0.13214,0.57662 0.26829,1.15324 0.41111,1.7272c0.12948,0.58463 0.30833,1.12655 0.47118,1.68449l0.50188,1.66713c0.1575,0.56862 0.36973,1.07716 0.55526,1.61774l0.57929,1.60173c0.18553,0.54592 0.41111,1.03846 0.62601,1.54834l0.65671,1.51897c1.79927,3.99097 3.92423,7.54813 6.18266,10.81832c1.16392,1.54967 2.30649,3.17943 3.53848,4.5756c0.60866,0.71276 1.21064,1.47225 1.82596,2.14497l1.85667,1.99949c0.61533,0.67939 1.24935,1.30541 1.88737,1.92741c0.63802,0.62067 1.26937,1.2627 1.91407,1.86334c1.29607,1.17994 2.59213,2.37856 3.91756,3.4624c0.66071,0.54993 1.32009,1.11453 1.98881,1.63243l2.00749,1.55634c0.66739,0.53124 1.34945,0.98506 2.02351,1.4816c0.67673,0.48319 1.35212,0.98105 2.03153,1.43488c5.43519,3.73603 10.95313,6.82735 16.31759,9.86396c2.68823,1.5203 5.32307,3.0366 7.89251,4.65435c2.56543,1.61774 5.06946,3.32091 7.43201,5.26701c0.58863,0.48853 1.15458,1.01576 1.74455,1.50829c0.29766,0.24159 0.57529,0.51522 0.85292,0.78752l0.83957,0.81421c0.57662,0.5219 1.08517,1.14123 1.62575,1.72452c0.26295,0.30033 0.54325,0.58062 0.79953,0.89029l0.76482,0.94502l0.7715,0.94769c0.2456,0.33236 0.47918,0.68073 0.72078,1.0211c0.47918,0.68608 0.97705,1.35747 1.41486,2.10627l0.68207,1.09985l0.34437,0.5526c0.11079,0.1882 0.20956,0.39109 0.31501,0.58597c0.41244,0.79018 0.8409,1.57236 1.25335,2.3799l1.16259,2.51871c0.22958,0.51389 0.43647,1.05046 0.64336,1.58838c-0.18553,-0.38041 -0.35905,-0.7715 -0.5526,-1.1439c-1.71919,-3.2475 -3.78274,-6.16131 -6.06387,-8.59459c-2.28112,-2.43195 -4.75446,-4.39807 -7.27317,-6.01848c-5.05478,-3.2168 -10.24838,-5.1055 -15.29782,-6.69254c-5.06012,-1.57369 -10.02013,-2.83105 -14.848,-4.334c-4.82787,-1.49628 -9.52894,-3.22081 -14.06049,-5.52062c-0.56995,-0.27496 -1.12922,-0.5873 -1.69383,-0.87961c-0.55393,-0.31768 -1.12788,-0.61667 -1.66713,-0.93968c-1.10252,-0.62067 -2.16767,-1.32142 -3.22748,-2.03286c-2.09826,-1.46158 -4.11911,-3.094 -5.95575,-5.01741c-1.83798,-1.92073 -3.51446,-4.09508 -4.91863,-6.61246c-0.70476,-1.25602 -1.33077,-2.60147 -1.88737,-4.02701c-0.56862,-1.41886 -1.03044,-2.9405 -1.41352,-4.53022c-1.54567,-6.36953 -1.59372,-13.98173 -0.28431,-21.45779c-0.84224,1.49628 -1.51764,3.19945 -2.12763,4.96535c-0.5913,1.77792 -1.09585,3.64927 -1.47225,5.60204c-0.39242,1.94877 -0.64069,3.98028 -0.78485,6.05853c-0.13081,2.07957 -0.11612,4.2032 0.02402,6.3375c0.16952,2.12362 0.46317,4.25659 0.91165,6.32949c0.45249,2.06756 1.03578,4.09108 1.75122,5.99446c1.42554,3.81878 3.29956,7.2131 5.39648,10.1149c4.19919,5.82495 9.20726,9.81858 14.16727,12.83917c5.00273,3.05796 10.18832,5.15489 15.32585,6.72858c5.14287,1.57637 10.24971,2.60815 15.21773,3.64659c4.96535,1.05046 9.80523,2.09425 14.36748,3.9229c2.27578,0.925 4.47682,2.06222 6.57642,3.51178c2.08892,1.46825 4.08574,3.24483 5.92505,5.44453c1.84065,2.19303 3.53981,4.77581 5.07613,7.67761c1.54834,2.89245 2.9058,6.10258 4.22989,9.45019c-0.07074,-0.82756 -0.16284,-1.65511 -0.26162,-2.48134c0.03871,0.18153 0.07608,0.35905 0.11612,0.53925zM249.3921,122.25317c1.22532,1.41486 2.06489,3.42369 2.52005,6.0265c0.22691,1.56302 0.34036,5.76754 0.34036,12.61226v36.21369c0.13748,0.14015 0.2763,0.28297 0.40844,0.41912c0.32969,0.3417 0.65804,0.68474 1.00509,1.00909l1.75789,1.66713c0.41378,0.4071 0.81287,0.75682 1.21197,1.10786l1.15992,1.02777c0.36306,0.32435 0.72478,0.6487 1.09452,0.9597c0.42712,0.34303 0.88094,0.72211 1.33477,1.10118c0.73546,0.61399 1.47091,1.23066 2.22906,1.7966c2.58813,2.05822 5.2283,3.91355 7.47606,5.46188c1.49762,1.02644 2.99924,2.02084 4.52488,3.01391v-0.98774c4.40341,0 7.76303,0.94902 10.07886,2.84573c1.85667,1.52164 3.5278,4.22322 5.01874,8.06469c1.52164,1.08383 2.96586,2.15832 4.33935,3.24216c0.9864,0.78485 1.89271,1.543 2.76298,2.29447v-60.53189h-2.58813c-0.72611,11.75667 -2.40659,20.64759 -5.04009,26.67407c-2.6335,6.02649 -6.87808,9.03908 -12.73506,9.03908h-1.83798v-61.60638h9.53428c6.99154,0 11.75801,0.67006 14.30075,2.00883c4.35937,2.23174 7.731,5.73017 10.11356,10.48997c2.3839,4.76247 4.23256,12.61226 5.54998,23.54938h2.58813v-44.75222h-77.29796v4.12978h3.06464c2.99923,0 5.35911,1.04246 7.08497,3.12336zM306.02513,251.79406c-4.68238,4.10843 -10.43658,6.17064 -17.26927,6.17064h-5.51661c-2.6335,0 -4.53956,-0.59397 -5.72083,-1.78592c-1.18127,-1.18928 -1.98614,-2.71492 -2.41861,-4.5756c-0.41512,-1.78592 -0.62868,-6.56841 -0.64469,-14.32877c-3.47708,-0.75148 -7.0209,-1.58304 -10.59542,-2.67889c-4.25258,-1.30273 -8.08338,-2.83105 -11.60851,-4.61697v10.46461c0,7.58951 -0.25094,12.27723 -0.75014,14.06182c-0.63669,2.53072 -1.54433,4.31665 -2.72427,5.35777c-1.63376,1.56169 -3.79076,2.34386 -6.46964,2.34386h-3.06464v4.12978h74.43754c-1.07983,-2.70425 -2.35321,-5.73284 -3.83614,-8.50517c-1.18795,-2.24909 -2.47067,-4.26326 -3.81878,-6.03717zM320.69693,218.23391c-1.37348,8.10207 -3.28621,14.94277 -5.73151,20.5408c1.03044,3.71066 1.80995,7.74702 2.2918,12.07168l0.10811,1.12521c0.07341,0.75815 0.14549,1.51363 0.20956,2.26778l0.17085,4.03101c0.01335,0.37106 0.0267,0.7408 0.03337,1.11053l-0.01468,1.72052c-0.01202,1.12255 -0.03604,2.23708 -0.0654,3.34494l-0.00935,0.33903c0.04805,0.4605 0.10678,0.91565 0.14683,1.38149l0.01468,0.16952h1.21197l4.15381,-48.10249z" data-paper-data="{&quot;isPathIcon&quot;:true}"></path>
    </g>
</svg>